<svg xmlns="http://www.w3.org/2000/svg" width="76" height="76" viewBox="0 0 76 76"><defs><style>.a{fill:#5b9bcc;}.b{fill:#fff;}</style></defs><g transform="translate(-595 -322)"><rect class="a" width="76" height="76" rx="38" transform="translate(595 322)"/><g transform="translate(580.857 319.462)"><path class="b" d="M72.555,643.154,54.8,653.807a3.79,3.79,0,0,1-3.553,0L33.49,643.154a1.139,1.139,0,0,1,0-2.13l3.012-1.806,13.7,8.224a5.854,5.854,0,0,0,5.639,0l13.7-8.224,3.012,1.806a1.139,1.139,0,0,1,0,2.13Z" transform="translate(-0.015 -593.528)"/><path class="b" d="M72.54,446.2,54.784,456.86a3.79,3.79,0,0,1-3.553,0L33.474,446.2a1.139,1.139,0,0,1,0-2.13l3.012-1.809,13.7,8.22a5.8,5.8,0,0,0,5.639,0l13.7-8.224,3.011,1.809a1.14,1.14,0,0,1,0,2.13Z" transform="translate(0 -404.686)"/><path class="b" d="M72.54,33.409,54.784,44.067a3.79,3.79,0,0,1-3.553,0L33.474,33.409a1.139,1.139,0,0,1,0-2.13L51.231,20.621a3.81,3.81,0,0,1,3.553,0L72.54,31.279A1.139,1.139,0,0,1,72.54,33.409Z" transform="translate(0 0)"/></g></g></svg>