<svg xmlns="http://www.w3.org/2000/svg" width="76" height="76" viewBox="0 0 76 76"><defs><style>.a{fill:#5bcc84;}.b{fill:#fff;}</style></defs><g transform="translate(-595 -144)"><rect class="a" width="76" height="76" rx="38" transform="translate(595 144)"/><g transform="translate(526.254 75.254)"><path class="b" d="M106.2,85.333a20.864,20.864,0,0,1,20.849,20.057,15.373,15.373,0,0,0-21.657,21.656,20.864,20.864,0,0,1,.808-41.712ZM102.9,93.02h-2.2a1.1,1.1,0,0,0-1.1,1.1v5.49a1.1,1.1,0,0,0,1.1,1.1h2.2a1.1,1.1,0,0,0,1.1-1.1V94.118A1.1,1.1,0,0,0,102.9,93.02Zm10.981,0h-2.2a1.1,1.1,0,0,0-1.1,1.1v5.49a1.1,1.1,0,0,0,1.1,1.1h2.2a1.1,1.1,0,0,0,1.1-1.1V94.118A1.1,1.1,0,0,0,113.884,93.02Z" transform="translate(0)"/><path class="b" d="M501.648,490.667a10.981,10.981,0,1,1-10.981,10.981A10.981,10.981,0,0,1,501.648,490.667Zm1.1,5.491h-2.2a1.1,1.1,0,0,0-1.1,1.1v3.294h-3.294a1.1,1.1,0,0,0-1.09.97l-.008.129v2.2a1.1,1.1,0,0,0,1.1,1.1h3.294v3.294a1.1,1.1,0,0,0,.97,1.09l.129.008h2.2a1.1,1.1,0,0,0,1.1-1.1v-3.294h3.294a1.1,1.1,0,0,0,1.09-.969l.008-.129v-2.2a1.1,1.1,0,0,0-1.1-1.1h-3.294v-3.294a1.1,1.1,0,0,0-.969-1.09l-.129-.008Z" transform="translate(-384.47 -384.47)"/></g></g></svg>