<svg xmlns="http://www.w3.org/2000/svg" width="32" height="32" viewBox="0 0 32 32"><defs><style>.a{fill:#de5c5c;}</style></defs><path class="a" d="M93.179,80A4.382,4.382,0,0,1,96,75.911a16.41,16.41,0,0,0-1.793-4.332,4.376,4.376,0,0,1-5.782-5.786A16.483,16.483,0,0,0,84.089,64a4.374,4.374,0,0,1-8.179,0,16.41,16.41,0,0,0-4.332,1.793A4.376,4.376,0,0,1,65.8,71.579,16.3,16.3,0,0,0,64,75.911a4.374,4.374,0,0,1,0,8.179,16.41,16.41,0,0,0,1.793,4.332,4.376,4.376,0,0,1,5.782,5.786A16.483,16.483,0,0,0,75.911,96a4.374,4.374,0,0,1,8.179,0,16.41,16.41,0,0,0,4.332-1.793A4.376,4.376,0,0,1,94.2,88.421,16.3,16.3,0,0,0,96,84.089,4.382,4.382,0,0,1,93.179,80ZM80,84.393A4.393,4.393,0,1,1,84.393,80,4.394,4.394,0,0,1,80,84.393Z" transform="translate(-64 -64)"/></svg>