<svg xmlns="http://www.w3.org/2000/svg" width="37" height="37" viewBox="0 0 37 37"><defs><style>.a{fill:#ccc;}.b{fill:#fff;stroke:#fff;}</style></defs><g transform="translate(-352 -87)"><circle class="a" cx="18.5" cy="18.5" r="18.5" transform="translate(352 87)"/><path class="b" d="M262.981,83.15a.786.786,0,0,1-.534-.205l-9.575-8.874a.666.666,0,0,1,0-.992l9.575-8.874a.8.8,0,0,1,1.069,0,.666.666,0,0,1,0,.992l-9.041,8.378,9.041,8.378a.666.666,0,0,1,0,.992A.786.786,0,0,1,262.981,83.15Z" transform="translate(296.85 365.334) rotate(-90)"/></g></svg>