<svg xmlns="http://www.w3.org/2000/svg" width="44.572" height="39" viewBox="0 0 44.572 39"><defs><style>.a{fill:#666;}</style></defs><path class="a" d="M40.872,89.962H37.886V87.734h2.986a1.493,1.493,0,0,0,1.471-1.515V68.256a1.523,1.523,0,0,0-1.471-1.515H11.9a1.493,1.493,0,0,0-1.471,1.515v2.986H8.2V68.256a3.729,3.729,0,0,1,3.7-3.744H40.872a3.729,3.729,0,0,1,3.7,3.744V86.218A3.7,3.7,0,0,1,40.872,89.962ZM36.415,76.457V94.419a3.729,3.729,0,0,1-3.7,3.744h-19.7L7.8,103.512V98.253H3.7A3.729,3.729,0,0,1,0,94.509V76.457a3.7,3.7,0,0,1,3.7-3.744H32.671A3.766,3.766,0,0,1,36.415,76.457Zm-34.186,0V94.419A1.523,1.523,0,0,0,3.7,95.935H9.672v2.986l2.986-2.986H32.715a1.493,1.493,0,0,0,1.471-1.515V76.457a1.523,1.523,0,0,0-1.471-1.515H3.7a1.588,1.588,0,0,0-1.471,1.515ZM26.386,87.734a2.229,2.229,0,1,1,2.229-2.229A2.265,2.265,0,0,1,26.386,87.734Zm-8.2,0a2.229,2.229,0,1,1,2.229-2.229A2.235,2.235,0,0,1,18.185,87.734Zm-8.157,0a2.229,2.229,0,1,1,2.229-2.229,2.235,2.235,0,0,1-2.229,2.229Z" transform="translate(0 -64.512)"/></svg>