<svg xmlns="http://www.w3.org/2000/svg" width="76" height="76" viewBox="0 0 76 76"><defs><style>.a{fill:#e67e22;}.b{fill:#fff;}</style></defs><g transform="translate(-595 -501)"><rect class="a" width="76" height="76" rx="38" transform="translate(595 501)"/><g transform="translate(499.934 397.18)"><path class="b" d="M140.666,142.366a10.087,10.087,0,0,0,2.589-6.822,10.652,10.652,0,0,0-21.3,0,10.508,10.508,0,0,0,5.326,9.145c-5.723,1.909-10.091,7.853-10.913,14.131h21.673a12.586,12.586,0,0,1-3.105-7.576,9.653,9.653,0,0,1,5.734-8.879" transform="translate(0)"/><path class="b" d="M603,564.234a6.874,6.874,0,0,0-6.828,6.958A6.968,6.968,0,0,0,603,578.156a6.962,6.962,0,0,0,0-13.922m0,10.641-.68.822-3.553-3.825,1.23-1.224,2.182,2.323,4.233-5.326,1.366,1.094L603,574.875" transform="translate(-458.779 -420.084)"/></g></g></svg>