<svg xmlns="http://www.w3.org/2000/svg" width="30.773" height="29.605" viewBox="0 0 30.773 29.605"><defs><style>.a{fill:#a8d45d;}</style></defs><path class="a" d="M23.158,29.605a3.326,3.326,0,0,1-1.358-.326l-6.428-3.2-6.491,3.2a3.308,3.308,0,0,1-1.358.326,2.8,2.8,0,0,1-1.732-.576,3.075,3.075,0,0,1-1.155-2.952l1.358-6.855L.91,14.483a3.059,3.059,0,0,1-.765-3.015v-.063a3.075,3.075,0,0,1,2.391-2.05L9.589,8.081l3.151-6.4a2.928,2.928,0,0,1,5.288-.017L21.18,8.081l7.082,1.213a3.009,3.009,0,0,1,1.689,5.065L24.866,19.1l1.279,6.853a2.957,2.957,0,0,1-1.153,2.89,2.552,2.552,0,0,1-1.835.764ZM13.145,18.029a.683.683,0,0,0-.683.683,2.953,2.953,0,0,0,5.907,0,.683.683,0,0,0-.2-.485.693.693,0,0,0-.483-.2.683.683,0,0,0-.692.683,1.577,1.577,0,0,1-3.153,0,.683.683,0,0,0-.693-.682Z" transform="translate(-0.021)"/></svg>