<svg xmlns="http://www.w3.org/2000/svg" width="38.357" height="38.357" viewBox="0 0 38.357 38.357"><defs><style>.a{fill:#666;}</style></defs><path class="a" d="M604.646,624.783h3.03a1.122,1.122,0,1,0,0-2.244h-5.408l3.653-3.615a1.122,1.122,0,0,0,0-1.592,1.2,1.2,0,0,0-1.64,0l-3.519,3.519-3.519-3.519a1.2,1.2,0,0,0-1.64,0,1.122,1.122,0,0,0,0,1.592l3.605,3.615h-5.447a1.122,1.122,0,0,0,0,2.244h5.8V626.6h-5.8a1.122,1.122,0,0,0,0,2.244h5.8v2.273a1.122,1.122,0,0,0,1.122,1.132h.048a1.122,1.122,0,0,0,1.122-1.122v-2.273h5.8a1.122,1.122,0,0,0,0-2.244H601.9v-1.822Z" transform="translate(-570.441 -593.896)"/><path class="a" d="M290.8,270.3a1.082,1.082,0,0,0-.048-.163,1.161,1.161,0,0,0-.249-.364l-4.977-4.986a1.285,1.285,0,1,0-1.812,1.812l2.79,2.79H274.181a1.285,1.285,0,0,0,0,2.57H289.85l.163-.048a1.16,1.16,0,0,0,.364-.249,1.391,1.391,0,0,0,.249-.364,1.26,1.26,0,0,0,.048-.163.481.481,0,0,0,0-.077,1.257,1.257,0,0,0,0-.508.221.221,0,0,0,.125-.249Zm-1.275,3.749H273.855l-.163.048a1.161,1.161,0,0,0-.364.249,1.392,1.392,0,0,0-.249.364,1.246,1.246,0,0,0-.048.163.466.466,0,0,0,0,.077,1.255,1.255,0,0,0,0,.508v.077a1.082,1.082,0,0,0,.048.163,1.161,1.161,0,0,0,.249.364l4.986,4.986a1.285,1.285,0,0,0,1.726-1.678l-2.8-2.781h12.284a1.285,1.285,0,1,0,0-2.57Z" transform="translate(-262.674 -254.44)"/><path class="a" d="M19.178,38.357A19.178,19.178,0,1,1,38.357,19.178a1.285,1.285,0,1,1-2.57,0A16.608,16.608,0,1,0,19.178,35.787a1.285,1.285,0,1,1,0,2.57Z"/></svg>