<svg xmlns="http://www.w3.org/2000/svg" width="38.602" height="38.602" viewBox="0 0 38.602 38.602"><defs><style>.a{fill:#666;}</style></defs><path class="a" d="M99.038,75.926a1.563,1.563,0,0,1-1.563-1.563v-6a3.233,3.233,0,0,0-3.233-3.233h-6a1.563,1.563,0,1,1,0-3.127h5.993a6.369,6.369,0,0,1,6.369,6.36v5.993a1.563,1.563,0,0,1-1.563,1.573Zm-35.475,0A1.563,1.563,0,0,1,62,74.362v-6A6.369,6.369,0,0,1,68.36,62h5.993a1.563,1.563,0,0,1,0,3.127H68.36a3.233,3.233,0,0,0-3.233,3.233v5.993a1.563,1.563,0,0,1-1.563,1.573Zm10.8,24.676h-6A6.369,6.369,0,0,1,62,94.242v-6a1.563,1.563,0,1,1,3.127,0v5.993a3.233,3.233,0,0,0,3.233,3.233h5.993a1.563,1.563,0,1,1,0,3.127Zm19.88,0h-6a1.563,1.563,0,1,1,0-3.127h5.993a3.233,3.233,0,0,0,3.233-3.233v-6a1.563,1.563,0,1,1,3.127,0v5.993a6.369,6.369,0,0,1-6.35,6.369ZM89.021,69.72H73.581a3.86,3.86,0,0,0-3.86,3.86V89.021a3.86,3.86,0,0,0,3.86,3.86H89.021a3.86,3.86,0,0,0,3.86-3.86V73.58A3.86,3.86,0,0,0,89.021,69.72Zm.6,11.774a1.448,1.448,0,0,1-1.448,1.448H74.43a1.448,1.448,0,0,1-1.448-1.448v-.386A1.448,1.448,0,0,1,74.43,79.66H88.172a1.448,1.448,0,0,1,1.448,1.448Z" transform="translate(-62 -62)"/></svg>