<svg xmlns="http://www.w3.org/2000/svg" width="34.714" height="23.5" viewBox="0 0 34.714 23.5"><defs><style>.a{fill:#4baa67;}</style></defs><path class="a" d="M25.879,22.649a3.487,3.487,0,0,0,.6-.522l7.283-7.982a4.028,4.028,0,0,0,0-5.326L26.479.84a3.23,3.23,0,0,0-4.86,0L19.067,3.633,22.142,7a6.783,6.783,0,0,1,0,8.963,1.1,1.1,0,0,1-1.659,0,1.374,1.374,0,0,1,0-1.818,4.028,4.028,0,0,0,0-5.326L17.407,5.448,13.2.833q-.1-.105-.2-.2a3.219,3.219,0,0,0-4.659.2L1.055,8.822a4.032,4.032,0,0,0,0,5.326L8.338,22.13a3.231,3.231,0,0,0,4.86,0l2.549-2.792-3.076-3.371a6.785,6.785,0,0,1,0-8.963A1.1,1.1,0,0,1,14.33,7a1.374,1.374,0,0,1,0,1.818,4.032,4.032,0,0,0,0,5.326l7.283,7.982a3.218,3.218,0,0,0,4.263.522Z" transform="translate(-0.05 0.269)"/></svg>