<svg xmlns="http://www.w3.org/2000/svg" width="27.499" height="27.499" viewBox="0 0 27.499 27.499"><defs><style>.a{fill:#e58306;}</style></defs><path class="a" d="M88.386,71.92a1.114,1.114,0,0,1-1.114-1.114V66.531a2.3,2.3,0,0,0-2.3-2.3H80.693a1.114,1.114,0,1,1,0-2.227h4.269A4.537,4.537,0,0,1,89.5,66.531V70.8a1.114,1.114,0,0,1-1.114,1.121Zm-25.272,0A1.114,1.114,0,0,1,62,70.807V66.531A4.537,4.537,0,0,1,66.531,62H70.8a1.114,1.114,0,0,1,0,2.227H66.531a2.3,2.3,0,0,0-2.3,2.3V70.8a1.114,1.114,0,0,1-1.114,1.121ZM70.807,89.5H66.531A4.537,4.537,0,0,1,62,84.969V80.693a1.114,1.114,0,1,1,2.227,0v4.269a2.3,2.3,0,0,0,2.3,2.3H70.8a1.114,1.114,0,1,1,0,2.227Zm14.162,0H80.693a1.114,1.114,0,1,1,0-2.227h4.269a2.3,2.3,0,0,0,2.3-2.3V80.693a1.114,1.114,0,1,1,2.227,0v4.269A4.537,4.537,0,0,1,84.969,89.5Zm-3.719-22h-11a2.75,2.75,0,0,0-2.75,2.75v11A2.75,2.75,0,0,0,70.25,84h11A2.75,2.75,0,0,0,84,81.25v-11A2.75,2.75,0,0,0,81.25,67.5Zm.426,8.387a1.031,1.031,0,0,1-1.031,1.031h-9.79a1.031,1.031,0,0,1-1.031-1.031v-.275a1.031,1.031,0,0,1,1.031-1.031h9.79a1.031,1.031,0,0,1,1.031,1.031Z" transform="translate(-62 -62)"/></svg>