<svg xmlns="http://www.w3.org/2000/svg" width="43.872" height="32.654" viewBox="0 0 43.872 32.654"><defs><style>.a{fill:#666;}</style></defs><g transform="translate(-178.827 -283.5)"><path class="a" d="M208.324,313.417H184.069a2.649,2.649,0,0,1-2.5-2.789V288.973a2.508,2.508,0,0,1,.131-.829l15.746,11.618a1.387,1.387,0,0,0,.816.268,1.353,1.353,0,0,0,.829-.281l15.68-11.912a2.683,2.683,0,0,1,.242,1.2v4.206a1.371,1.371,0,1,0,2.743,0v-4.154a5.392,5.392,0,0,0-5.179-5.584H183.951a5.363,5.363,0,0,0-5.12,5.525V310.57a5.388,5.388,0,0,0,5.179,5.584h24.314a1.368,1.368,0,1,0,0-2.736ZM184.01,286.249h28.324l-14.087,10.7L183.821,286.3A.9.9,0,0,1,184.01,286.249Z"/><path class="a" d="M551.622,482H541.591a1.371,1.371,0,0,0,0,2.743h10.031a1.371,1.371,0,0,0,0-2.743Zm-4.01,5.989H537.581a1.371,1.371,0,1,0,0,2.743h10.031a1.371,1.371,0,0,0,0-2.743Zm-4.01,5.976H533.571a1.371,1.371,0,0,0,0,2.743H543.6a1.371,1.371,0,0,0,0-2.743Z" transform="translate(-330.296 -185.537)"/></g></svg>