<svg xmlns="http://www.w3.org/2000/svg" width="30.309" height="30.309" viewBox="0 0 30.309 30.309"><defs><style>.a{fill:#fb0;}</style></defs><path class="a" d="M34.457,19.3A15.155,15.155,0,1,0,49.611,34.457,15.161,15.161,0,0,0,34.457,19.3ZM34.429,44.5a.907.907,0,0,1-.908-.908V40.45H28.368a.908.908,0,1,1,0-1.815h5.153V34.371H28.368a.908.908,0,1,1,0-1.815h5.153v-.8l-5.805-5.821a.857.857,0,1,1,1.212-1.212L34.414,30.2l5.547-5.531a.863.863,0,0,1,.615-.252.875.875,0,0,1,.625,1.5l-5.864,5.864v.788H40.6v-.009a.908.908,0,0,1-.108,1.809H35.337v4.261H40.49a.908.908,0,0,1,0,1.815H35.337v3.138A.91.91,0,0,1,34.429,44.5Z" transform="translate(-19.302 -19.302)"/></svg>