<svg xmlns="http://www.w3.org/2000/svg" width="28.507" height="28.507" viewBox="0 0 28.507 28.507"><defs><style>.a{fill:#6c84bb;}</style></defs><path class="a" d="M105.128,106.91a1.781,1.781,0,1,0-1.781-1.781A1.781,1.781,0,0,0,105.128,106.91ZM122.944,98H101.562A3.562,3.562,0,0,0,98,101.562v21.382a3.562,3.562,0,0,0,3.562,3.562h21.382a3.562,3.562,0,0,0,3.562-3.562V101.562A3.562,3.562,0,0,0,122.944,98Zm-17.816,3.562a3.562,3.562,0,1,1-3.562,3.562,3.562,3.562,0,0,1,3.562-3.562Zm-3.566,23.163a1.781,1.781,0,0,1-1.781-1.781v-.839l7.077-6.338,8.958,8.958H101.562Zm23.163-1.781a1.781,1.781,0,0,1-1.781,1.781h-4.6l-6.562-6.649,7.6-7.6,5.344,5.344Z" transform="translate(-98 -98)"/></svg>