<svg xmlns="http://www.w3.org/2000/svg" width="37.37" height="39" viewBox="0 0 37.37 39"><defs><style>.a{fill:#666;}</style></defs><path class="a" d="M123.829,81.987a17.494,17.494,0,0,0-3.865-2.17,12.456,12.456,0,0,0,2.16-1.727,12.354,12.354,0,1,0-17.472,0,12.455,12.455,0,0,0,2.178,1.739h0l-.012,0h.006A17.531,17.531,0,0,0,96,94.039a1.3,1.3,0,0,0,1.139,1.436,1.295,1.295,0,0,0,1.436-1.139A14.931,14.931,0,0,1,122.286,84.07a1.3,1.3,0,0,0,1.543-2.083Zm-17.344-5.73a9.751,9.751,0,1,1,9.543,2.5,9.879,9.879,0,0,1-5.28,0h0A9.707,9.707,0,0,1,106.485,76.257Zm25.584,12.52h-3.334V85.443a1.3,1.3,0,1,0-2.592,0v3.334h-3.334a1.3,1.3,0,1,0,0,2.592h3.334V94.7a1.3,1.3,0,0,0,2.592,0V91.37h3.334a1.3,1.3,0,1,0,0-2.592Z" transform="translate(-95.996 -57)"/></svg>