<svg xmlns="http://www.w3.org/2000/svg" width="76" height="76" viewBox="0 0 76 76"><defs><style>.a{fill:#d85693;}.b{fill:#fff;}</style></defs><g transform="translate(-595 -411)"><rect class="a" width="76" height="76" rx="38" transform="translate(595 411)"/><path class="b" d="M130.093,65.6H106.478a4.692,4.692,0,0,0-4.678,4.678V97.573a4.1,4.1,0,0,0,6.582,3.112l6.751-5.137,1.739-1.32a2.34,2.34,0,0,1,2.83,0l8.486,6.445a4.1,4.1,0,0,0,6.582-3.112V70.278A4.687,4.687,0,0,0,130.093,65.6Zm-8.716,18.273H107.315a1.5,1.5,0,1,1,0-3h14.062a1.5,1.5,0,1,1,0,3Zm8.587-8.99H107.315a1.5,1.5,0,1,1,0-3h22.649a1.5,1.5,0,0,1,0,3Z" transform="translate(515.647 365.234)"/></g></svg>