<svg xmlns="http://www.w3.org/2000/svg" width="76" height="76" viewBox="0 0 76 76"><defs><style>.a{fill:#cc8c5b;}.b{fill:#fff;}</style></defs><g transform="translate(-595 -233)"><rect class="a" width="76" height="76" rx="38" transform="translate(595 233)"/><g transform="translate(486.927 126)"><path class="b" d="M143.186,162.183h-9.863A5.228,5.228,0,0,1,128,157.12V133.167A5.213,5.213,0,0,1,133.323,128h22.284a5.247,5.247,0,0,1,5.323,5.167v5.323a8.175,8.175,0,0,0-7.2-4.279,8.063,8.063,0,0,0-8.089,8.089,9.088,9.088,0,0,0,.887,3.81,7.589,7.589,0,0,0-.992.887c-2.4,2.035-5.427,6.315-5.167,11.116a3.968,3.968,0,0,0,2.818,4.071ZM134,136.872a1.3,1.3,0,0,0,0,2.609h6.784a1.3,1.3,0,1,0,0-2.609Zm0,5.219a1.3,1.3,0,0,0,0,2.609h5.219a1.3,1.3,0,0,0,0-2.609Zm0,5.219a1.3,1.3,0,0,0,0,2.609h3.131a1.3,1.3,0,0,0,0-2.609H134Zm26.929-.678c-.1,0-.1-.1-.261-.1.1-.1.1-.261.261-.365Z" transform="translate(0)"/><path class="b" d="M480.963,335.943a5.19,5.19,0,0,1,2.922,1.513c1.774,1.67,4.175,4.8,4.071,8.611s-4.175,3.81-10.124,3.81-10.02,0-10.124-3.81a11.159,11.159,0,0,1,4.071-8.611,5.873,5.873,0,0,1,3.183-1.513h.626a5.306,5.306,0,0,1-2.662-4.7,5.108,5.108,0,0,1,5.271-5.427,5.358,5.358,0,0,1,5.427,5.427,5.289,5.289,0,0,1-2.661,4.7Z" transform="translate(-324.469 -188.947)"/></g></g></svg>